<svg  viewBox="0 0 583 604" fill="none" xmlns="http://www.w3.org/2000/svg">
<path fillRule="evenodd" clipRule="evenodd" d="M700 115C700 166.758 665.807 210.53 618.778 224.959L658.815 234.48C636.739 327.313 598.832 413.596 551.064 479.74C503.296 545.884 448.38 588.132 394.965 599.831C351.924 609.258 311.828 598.418 278.703 568.919C254.548 579.269 227.943 585 200 585C89.5431 585 0 495.457 0 385C0 274.543 89.5431 185 200 185C310.095 185 399.412 273.957 399.997 383.914C405.278 384.078 410.697 383.564 416.216 382.355C441.866 376.737 468.235 356.45 491.173 324.689C511.745 296.203 528.508 259.938 539.394 220.602C498.568 202.947 470 162.31 470 115C470 51.4873 521.487 0 585 0C648.513 0 700 51.4873 700 115Z" fill="#5686E1"/>
</svg>
