<svg width="318" height="400" viewBox="0 0 318 400" fill="none" xmlns="http://www.w3.org/2000/svg">
<rect x="-186.329" y="224.19" width="464.954" height="200" rx="100" transform="rotate(-28.8277 -186.329 224.19)" fill="#0021F5" fill-opacity="0.47"/>
<path d="M33.8963 168V146.182H38.5092V164.197H47.8629V168H33.8963ZM55.4988 168.309C54.4547 168.309 53.5243 168.128 52.7076 167.766C51.8908 167.396 51.2445 166.853 50.7686 166.136C50.2999 165.411 50.0655 164.509 50.0655 163.43C50.0655 162.521 50.2324 161.757 50.5662 161.139C50.9 160.521 51.3546 160.024 51.9299 159.648C52.5051 159.271 53.1586 158.987 53.8901 158.795C54.6287 158.604 55.4029 158.469 56.2125 158.391C57.1642 158.291 57.9313 158.199 58.5137 158.114C59.0961 158.021 59.5186 157.886 59.7814 157.709C60.0442 157.531 60.1756 157.268 60.1756 156.92V156.857C60.1756 156.182 59.9625 155.66 59.5364 155.29C59.1174 154.921 58.5208 154.737 57.7466 154.737C56.9299 154.737 56.28 154.918 55.7971 155.28C55.3141 155.635 54.9945 156.082 54.8382 156.622L50.6408 156.281C50.8539 155.287 51.2729 154.428 51.8979 153.703C52.5229 152.972 53.329 152.411 54.3162 152.02C55.3105 151.622 56.4611 151.423 57.7679 151.423C58.677 151.423 59.5471 151.53 60.378 151.743C61.2161 151.956 61.9583 152.286 62.6046 152.734C63.258 153.181 63.7729 153.756 64.1493 154.46C64.5257 155.156 64.714 155.99 64.714 156.963V168H60.41V165.731H60.2821C60.0194 166.242 59.6678 166.693 59.2275 167.084C58.7871 167.467 58.258 167.769 57.6401 167.989C57.0222 168.202 56.3084 168.309 55.4988 168.309ZM56.7985 165.177C57.4661 165.177 58.0556 165.045 58.5669 164.783C59.0783 164.513 59.4796 164.151 59.7708 163.696C60.062 163.241 60.2076 162.727 60.2076 162.151V160.415C60.0655 160.507 59.8702 160.592 59.6216 160.67C59.3801 160.741 59.1067 160.809 58.8013 160.873C58.4959 160.93 58.1905 160.983 57.8851 161.033C57.5797 161.075 57.3027 161.114 57.0542 161.15C56.5215 161.228 56.0563 161.352 55.6586 161.523C55.2608 161.693 54.9519 161.924 54.7317 162.215C54.5115 162.499 54.4015 162.854 54.4015 163.281C54.4015 163.898 54.6252 164.371 55.0726 164.697C55.5272 165.017 56.1025 165.177 56.7985 165.177ZM76.9387 151.636V155.045H67.0843V151.636H76.9387ZM69.3216 147.716H73.8599V162.972C73.8599 163.391 73.9238 163.717 74.0517 163.952C74.1795 164.179 74.3571 164.339 74.5843 164.431C74.8187 164.523 75.0886 164.57 75.394 164.57C75.6071 164.57 75.8201 164.552 76.0332 164.516C76.2463 164.474 76.4096 164.442 76.5233 164.42L77.237 167.798C77.0098 167.869 76.6902 167.95 76.2782 168.043C75.8663 168.142 75.3656 168.202 74.7761 168.224C73.6824 168.266 72.7235 168.121 71.8997 167.787C71.0829 167.453 70.4473 166.935 69.9927 166.232C69.5382 165.528 69.3145 164.641 69.3216 163.568V147.716ZM87.1767 168.32C85.4934 168.32 84.0446 167.979 82.8301 167.297C81.6227 166.608 80.6923 165.635 80.0389 164.378C79.3855 163.114 79.0588 161.619 79.0588 159.893C79.0588 158.21 79.3855 156.732 80.0389 155.461C80.6923 154.19 81.612 153.199 82.7981 152.489C83.9913 151.778 85.3904 151.423 86.9956 151.423C88.0751 151.423 89.0801 151.597 90.0105 151.945C90.948 152.286 91.7647 152.801 92.4608 153.49C93.1639 154.179 93.7108 155.045 94.1014 156.089C94.492 157.126 94.6873 158.341 94.6873 159.733V160.979H80.8699V158.167H90.4153C90.4153 157.513 90.2733 156.935 89.9892 156.43C89.7051 155.926 89.3109 155.532 88.8066 155.248C88.3095 154.957 87.7306 154.811 87.0701 154.811C86.3812 154.811 85.7704 154.971 85.2377 155.29C84.7122 155.603 84.3002 156.026 84.002 156.558C83.7037 157.084 83.551 157.67 83.5439 158.316V160.99C83.5439 161.8 83.693 162.499 83.9913 163.089C84.2967 163.678 84.7264 164.133 85.2804 164.452C85.8343 164.772 86.4913 164.932 87.2512 164.932C87.7555 164.932 88.2172 164.861 88.6362 164.719C89.0552 164.577 89.4139 164.364 89.7122 164.08C90.0105 163.795 90.2377 163.447 90.394 163.036L94.5914 163.312C94.3784 164.321 93.9416 165.202 93.2811 165.955C92.6277 166.7 91.7825 167.283 90.7456 167.702C89.7157 168.114 88.5261 168.32 87.1767 168.32ZM111.264 156.303L107.109 156.558C107.038 156.203 106.885 155.884 106.651 155.599C106.417 155.308 106.108 155.077 105.724 154.907C105.348 154.729 104.897 154.641 104.371 154.641C103.668 154.641 103.075 154.79 102.592 155.088C102.109 155.379 101.868 155.77 101.868 156.26C101.868 156.651 102.024 156.981 102.336 157.251C102.649 157.521 103.185 157.737 103.945 157.901L106.907 158.497C108.498 158.824 109.684 159.349 110.465 160.074C111.246 160.798 111.637 161.75 111.637 162.929C111.637 164.001 111.321 164.942 110.689 165.752C110.064 166.562 109.204 167.194 108.111 167.648C107.024 168.096 105.77 168.32 104.35 168.32C102.184 168.32 100.458 167.869 99.1724 166.967C97.894 166.058 97.1447 164.822 96.9245 163.259L101.388 163.025C101.523 163.685 101.85 164.19 102.368 164.538C102.887 164.879 103.551 165.049 104.361 165.049C105.156 165.049 105.795 164.896 106.278 164.591C106.768 164.278 107.017 163.877 107.024 163.387C107.017 162.975 106.843 162.638 106.502 162.375C106.161 162.105 105.635 161.899 104.925 161.757L102.091 161.192C100.493 160.873 99.3038 160.319 98.5225 159.531C97.7484 158.742 97.3613 157.737 97.3613 156.516C97.3613 155.464 97.6454 154.559 98.2136 153.799C98.7889 153.039 99.595 152.453 100.632 152.041C101.676 151.629 102.898 151.423 104.297 151.423C106.363 151.423 107.99 151.86 109.176 152.734C110.369 153.607 111.065 154.797 111.264 156.303ZM123.199 151.636V155.045H113.344V151.636H123.199ZM115.581 147.716H120.12V162.972C120.12 163.391 120.184 163.717 120.311 163.952C120.439 164.179 120.617 164.339 120.844 164.431C121.078 164.523 121.348 164.57 121.654 164.57C121.867 164.57 122.08 164.552 122.293 164.516C122.506 164.474 122.669 164.442 122.783 164.42L123.497 167.798C123.27 167.869 122.95 167.95 122.538 168.043C122.126 168.142 121.625 168.202 121.036 168.224C119.942 168.266 118.983 168.121 118.159 167.787C117.343 167.453 116.707 166.935 116.252 166.232C115.798 165.528 115.574 164.641 115.581 163.568V147.716ZM133.183 168V146.182H141.791C143.446 146.182 144.856 146.498 146.021 147.13C147.186 147.755 148.073 148.625 148.684 149.74C149.302 150.848 149.611 152.126 149.611 153.575C149.611 155.024 149.298 156.303 148.673 157.411C148.048 158.518 147.143 159.381 145.957 159.999C144.778 160.617 143.35 160.926 141.674 160.926H136.188V157.229H140.928C141.816 157.229 142.548 157.077 143.123 156.771C143.705 156.459 144.139 156.029 144.423 155.482C144.714 154.928 144.86 154.293 144.86 153.575C144.86 152.851 144.714 152.219 144.423 151.679C144.139 151.132 143.705 150.71 143.123 150.411C142.541 150.106 141.802 149.953 140.907 149.953H137.796V168H133.183ZM152.522 168V151.636H156.922V154.491H157.092C157.391 153.476 157.891 152.709 158.594 152.19C159.298 151.665 160.107 151.402 161.023 151.402C161.251 151.402 161.496 151.416 161.759 151.445C162.021 151.473 162.252 151.512 162.451 151.562V155.589C162.238 155.525 161.943 155.468 161.567 155.418C161.19 155.369 160.846 155.344 160.533 155.344C159.866 155.344 159.269 155.489 158.744 155.781C158.225 156.065 157.813 156.462 157.508 156.974C157.21 157.485 157.06 158.075 157.06 158.742V168H152.522ZM171.429 168.32C169.774 168.32 168.343 167.968 167.136 167.265C165.936 166.555 165.009 165.567 164.355 164.303C163.702 163.032 163.375 161.558 163.375 159.882C163.375 158.192 163.702 156.714 164.355 155.45C165.009 154.179 165.936 153.192 167.136 152.489C168.343 151.778 169.774 151.423 171.429 151.423C173.084 151.423 174.512 151.778 175.712 152.489C176.919 153.192 177.85 154.179 178.503 155.45C179.156 156.714 179.483 158.192 179.483 159.882C179.483 161.558 179.156 163.032 178.503 164.303C177.85 165.567 176.919 166.555 175.712 167.265C174.512 167.968 173.084 168.32 171.429 168.32ZM171.45 164.804C172.203 164.804 172.832 164.591 173.336 164.165C173.84 163.732 174.22 163.142 174.476 162.396C174.739 161.651 174.87 160.802 174.87 159.85C174.87 158.898 174.739 158.05 174.476 157.304C174.22 156.558 173.84 155.969 173.336 155.536C172.832 155.102 172.203 154.886 171.45 154.886C170.691 154.886 170.051 155.102 169.533 155.536C169.021 155.969 168.634 156.558 168.372 157.304C168.116 158.05 167.988 158.898 167.988 159.85C167.988 160.802 168.116 161.651 168.372 162.396C168.634 163.142 169.021 163.732 169.533 164.165C170.051 164.591 170.691 164.804 171.45 164.804ZM182.434 151.636H186.972V168.81C186.972 170.074 186.724 171.097 186.227 171.878C185.73 172.659 185.016 173.231 184.085 173.593C183.162 173.955 182.058 174.136 180.772 174.136C180.616 174.136 180.467 174.133 180.325 174.126C180.176 174.126 180.019 174.122 179.856 174.115V170.567C179.977 170.575 180.083 170.578 180.176 170.578C180.261 170.585 180.353 170.589 180.453 170.589C181.184 170.589 181.695 170.433 181.987 170.12C182.285 169.815 182.434 169.353 182.434 168.735V151.636ZM184.693 149.527C184.025 149.527 183.45 149.303 182.967 148.856C182.484 148.401 182.242 147.858 182.242 147.226C182.242 146.601 182.484 146.065 182.967 145.617C183.45 145.163 184.025 144.935 184.693 144.935C185.374 144.935 185.953 145.163 186.429 145.617C186.912 146.065 187.154 146.601 187.154 147.226C187.154 147.858 186.912 148.401 186.429 148.856C185.953 149.303 185.374 149.527 184.693 149.527ZM198.065 168.32C196.382 168.32 194.933 167.979 193.719 167.297C192.511 166.608 191.581 165.635 190.928 164.378C190.274 163.114 189.947 161.619 189.947 159.893C189.947 158.21 190.274 156.732 190.928 155.461C191.581 154.19 192.501 153.199 193.687 152.489C194.88 151.778 196.279 151.423 197.884 151.423C198.964 151.423 199.969 151.597 200.899 151.945C201.837 152.286 202.653 152.801 203.349 153.49C204.053 154.179 204.599 155.045 204.99 156.089C205.381 157.126 205.576 158.341 205.576 159.733V160.979H191.759V158.167H201.304C201.304 157.513 201.162 156.935 200.878 156.43C200.594 155.926 200.2 155.532 199.695 155.248C199.198 154.957 198.619 154.811 197.959 154.811C197.27 154.811 196.659 154.971 196.126 155.29C195.601 155.603 195.189 156.026 194.891 156.558C194.592 157.084 194.44 157.67 194.433 158.316V160.99C194.433 161.8 194.582 162.499 194.88 163.089C195.185 163.678 195.615 164.133 196.169 164.452C196.723 164.772 197.38 164.932 198.14 164.932C198.644 164.932 199.106 164.861 199.525 164.719C199.944 164.577 200.303 164.364 200.601 164.08C200.899 163.795 201.126 163.447 201.283 163.036L205.48 163.312C205.267 164.321 204.83 165.202 204.17 165.955C203.516 166.7 202.671 167.283 201.634 167.702C200.604 168.114 199.415 168.32 198.065 168.32ZM215.931 168.32C214.255 168.32 212.813 167.964 211.606 167.254C210.406 166.537 209.482 165.543 208.836 164.271C208.197 163 207.877 161.537 207.877 159.882C207.877 158.206 208.2 156.736 208.847 155.472C209.5 154.2 210.427 153.21 211.627 152.499C212.827 151.782 214.255 151.423 215.91 151.423C217.337 151.423 218.587 151.683 219.66 152.201C220.732 152.719 221.581 153.447 222.206 154.385C222.831 155.322 223.175 156.423 223.239 157.688H218.957C218.836 156.871 218.516 156.214 217.998 155.717C217.487 155.212 216.815 154.96 215.984 154.96C215.281 154.96 214.667 155.152 214.141 155.536C213.623 155.912 213.218 156.462 212.927 157.187C212.636 157.911 212.49 158.788 212.49 159.818C212.49 160.862 212.632 161.75 212.916 162.482C213.207 163.213 213.616 163.771 214.141 164.154C214.667 164.538 215.281 164.729 215.984 164.729C216.503 164.729 216.968 164.623 217.38 164.41C217.799 164.197 218.143 163.888 218.413 163.483C218.69 163.071 218.871 162.577 218.957 162.002H223.239C223.168 163.252 222.827 164.353 222.217 165.305C221.613 166.249 220.778 166.988 219.713 167.521C218.648 168.053 217.387 168.32 215.931 168.32ZM234.849 151.636V155.045H224.994V151.636H234.849ZM227.232 147.716H231.77V162.972C231.77 163.391 231.834 163.717 231.962 163.952C232.09 164.179 232.267 164.339 232.494 164.431C232.729 164.523 232.999 164.57 233.304 164.57C233.517 164.57 233.73 164.552 233.943 164.516C234.156 164.474 234.32 164.442 234.433 164.42L235.147 167.798C234.92 167.869 234.6 167.95 234.188 168.043C233.776 168.142 233.276 168.202 232.686 168.224C231.593 168.266 230.634 168.121 229.81 167.787C228.993 167.453 228.357 166.935 227.903 166.232C227.448 165.528 227.225 164.641 227.232 163.568V147.716ZM251.215 156.303L247.06 156.558C246.989 156.203 246.837 155.884 246.602 155.599C246.368 155.308 246.059 155.077 245.675 154.907C245.299 154.729 244.848 154.641 244.322 154.641C243.619 154.641 243.026 154.79 242.543 155.088C242.06 155.379 241.819 155.77 241.819 156.26C241.819 156.651 241.975 156.981 242.288 157.251C242.6 157.521 243.136 157.737 243.896 157.901L246.858 158.497C248.449 158.824 249.635 159.349 250.416 160.074C251.197 160.798 251.588 161.75 251.588 162.929C251.588 164.001 251.272 164.942 250.64 165.752C250.015 166.562 249.156 167.194 248.062 167.648C246.975 168.096 245.722 168.32 244.301 168.32C242.135 168.32 240.409 167.869 239.124 166.967C237.845 166.058 237.096 164.822 236.876 163.259L241.339 163.025C241.474 163.685 241.801 164.19 242.32 164.538C242.838 164.879 243.502 165.049 244.312 165.049C245.107 165.049 245.746 164.896 246.229 164.591C246.719 164.278 246.968 163.877 246.975 163.387C246.968 162.975 246.794 162.638 246.453 162.375C246.112 162.105 245.587 161.899 244.876 161.757L242.043 161.192C240.445 160.873 239.255 160.319 238.474 159.531C237.7 158.742 237.312 157.737 237.312 156.516C237.312 155.464 237.597 154.559 238.165 153.799C238.74 153.039 239.546 152.453 240.583 152.041C241.627 151.629 242.849 151.423 244.248 151.423C246.315 151.423 247.941 151.86 249.127 152.734C250.32 153.607 251.016 154.797 251.215 156.303Z" fill="white"/>
</svg>
