<svg width="338" height="403" viewBox="0 0 338 403" fill="none" xmlns="http://www.w3.org/2000/svg">
<path d="M-114.857 314.151C-141.487 265.12 -123.572 203.34 -74.843 176.162L152.773 49.2111C201.502 22.0328 262.593 39.748 289.222 88.7791V88.7791C315.852 137.81 297.937 199.59 249.208 226.768L21.5923 353.719C-27.1369 380.897 -88.2275 363.182 -114.857 314.151V314.151Z" fill="#0021F5" fill-opacity="0.47"/>
<path d="M117.938 149V133H123.344C124.594 133 125.62 133.214 126.422 133.641C127.224 134.062 127.818 134.643 128.203 135.383C128.589 136.122 128.781 136.964 128.781 137.906C128.781 138.849 128.589 139.685 128.203 140.414C127.818 141.143 127.227 141.716 126.43 142.133C125.633 142.544 124.615 142.75 123.375 142.75H119V141H123.313C124.167 141 124.854 140.875 125.375 140.625C125.901 140.375 126.281 140.021 126.516 139.562C126.755 139.099 126.875 138.547 126.875 137.906C126.875 137.266 126.755 136.706 126.516 136.227C126.276 135.747 125.893 135.378 125.367 135.117C124.841 134.852 124.146 134.719 123.281 134.719H119.875V149H117.938ZM125.469 141.812L129.406 149H127.156L123.281 141.812H125.469ZM136.662 149.25C135.506 149.25 134.508 148.995 133.67 148.484C132.837 147.969 132.193 147.25 131.74 146.328C131.292 145.401 131.068 144.323 131.068 143.094C131.068 141.865 131.292 140.781 131.74 139.844C132.193 138.901 132.824 138.167 133.631 137.641C134.443 137.109 135.391 136.844 136.475 136.844C137.1 136.844 137.717 136.948 138.326 137.156C138.936 137.365 139.49 137.703 139.99 138.172C140.49 138.635 140.889 139.25 141.186 140.016C141.482 140.781 141.631 141.724 141.631 142.844V143.625H132.381V142.031H139.756C139.756 141.354 139.62 140.75 139.35 140.219C139.084 139.687 138.704 139.268 138.209 138.961C137.719 138.654 137.141 138.5 136.475 138.5C135.74 138.5 135.105 138.682 134.568 139.047C134.037 139.406 133.628 139.875 133.342 140.453C133.055 141.031 132.912 141.651 132.912 142.312V143.375C132.912 144.281 133.068 145.049 133.381 145.68C133.699 146.305 134.139 146.781 134.701 147.109C135.264 147.432 135.917 147.594 136.662 147.594C137.146 147.594 137.584 147.526 137.975 147.391C138.37 147.25 138.712 147.042 138.998 146.766C139.285 146.484 139.506 146.135 139.662 145.719L141.443 146.219C141.256 146.823 140.941 147.354 140.498 147.812C140.055 148.266 139.508 148.62 138.857 148.875C138.206 149.125 137.475 149.25 136.662 149.25ZM149.311 149.25C148.186 149.25 147.217 148.984 146.404 148.453C145.592 147.922 144.967 147.19 144.529 146.258C144.092 145.326 143.873 144.26 143.873 143.062C143.873 141.844 144.097 140.768 144.545 139.836C144.998 138.898 145.628 138.167 146.436 137.641C147.248 137.109 148.196 136.844 149.279 136.844C150.123 136.844 150.883 137 151.561 137.312C152.238 137.625 152.792 138.062 153.225 138.625C153.657 139.187 153.925 139.844 154.029 140.594H152.186C152.045 140.047 151.732 139.562 151.248 139.141C150.769 138.714 150.123 138.5 149.311 138.5C148.592 138.5 147.962 138.687 147.42 139.062C146.883 139.432 146.464 139.956 146.162 140.633C145.865 141.305 145.717 142.094 145.717 143C145.717 143.927 145.863 144.734 146.154 145.422C146.451 146.109 146.868 146.643 147.404 147.023C147.946 147.404 148.581 147.594 149.311 147.594C149.79 147.594 150.225 147.51 150.615 147.344C151.006 147.177 151.337 146.938 151.607 146.625C151.878 146.312 152.071 145.937 152.186 145.5H154.029C153.925 146.208 153.667 146.846 153.256 147.414C152.85 147.977 152.311 148.424 151.639 148.758C150.972 149.086 150.196 149.25 149.311 149.25ZM161.756 149.25C160.6 149.25 159.602 148.995 158.764 148.484C157.93 147.969 157.287 147.25 156.834 146.328C156.386 145.401 156.162 144.323 156.162 143.094C156.162 141.865 156.386 140.781 156.834 139.844C157.287 138.901 157.917 138.167 158.725 137.641C159.537 137.109 160.485 136.844 161.568 136.844C162.193 136.844 162.811 136.948 163.42 137.156C164.029 137.365 164.584 137.703 165.084 138.172C165.584 138.635 165.982 139.25 166.279 140.016C166.576 140.781 166.725 141.724 166.725 142.844V143.625H157.475V142.031H164.85C164.85 141.354 164.714 140.75 164.443 140.219C164.178 139.687 163.798 139.268 163.303 138.961C162.813 138.654 162.235 138.5 161.568 138.5C160.834 138.5 160.199 138.682 159.662 139.047C159.131 139.406 158.722 139.875 158.436 140.453C158.149 141.031 158.006 141.651 158.006 142.312V143.375C158.006 144.281 158.162 145.049 158.475 145.68C158.792 146.305 159.232 146.781 159.795 147.109C160.357 147.432 161.011 147.594 161.756 147.594C162.24 147.594 162.678 147.526 163.068 147.391C163.464 147.25 163.805 147.042 164.092 146.766C164.378 146.484 164.6 146.135 164.756 145.719L166.537 146.219C166.35 146.823 166.035 147.354 165.592 147.812C165.149 148.266 164.602 148.62 163.951 148.875C163.3 149.125 162.568 149.25 161.756 149.25ZM171.373 141.781V149H169.529V137H171.311V138.875H171.467C171.748 138.266 172.175 137.776 172.748 137.406C173.321 137.031 174.061 136.844 174.967 136.844C175.779 136.844 176.49 137.01 177.1 137.344C177.709 137.672 178.183 138.172 178.521 138.844C178.86 139.51 179.029 140.354 179.029 141.375V149H177.186V141.5C177.186 140.557 176.941 139.823 176.451 139.297C175.962 138.766 175.29 138.5 174.436 138.5C173.847 138.5 173.321 138.628 172.857 138.883C172.399 139.138 172.037 139.51 171.771 140C171.506 140.49 171.373 141.083 171.373 141.781ZM187.617 137V138.562H181.398V137H187.617ZM183.211 134.125H185.055V145.562C185.055 146.083 185.13 146.474 185.281 146.734C185.438 146.99 185.635 147.161 185.875 147.25C186.12 147.333 186.378 147.375 186.648 147.375C186.852 147.375 187.018 147.365 187.148 147.344C187.279 147.318 187.383 147.297 187.461 147.281L187.836 148.937C187.711 148.984 187.536 149.031 187.313 149.078C187.089 149.13 186.805 149.156 186.461 149.156C185.94 149.156 185.43 149.044 184.93 148.82C184.435 148.596 184.023 148.255 183.695 147.797C183.372 147.339 183.211 146.76 183.211 146.062V134.125ZM196.828 149V133H202.422C203.536 133 204.456 133.193 205.18 133.578C205.904 133.958 206.443 134.471 206.797 135.117C207.151 135.758 207.328 136.469 207.328 137.25C207.328 137.937 207.206 138.505 206.961 138.953C206.721 139.401 206.404 139.755 206.008 140.016C205.617 140.276 205.193 140.469 204.734 140.594V140.75C205.224 140.781 205.716 140.953 206.211 141.266C206.706 141.578 207.12 142.026 207.453 142.609C207.786 143.193 207.953 143.906 207.953 144.75C207.953 145.552 207.771 146.273 207.406 146.914C207.042 147.555 206.466 148.062 205.68 148.437C204.893 148.812 203.87 149 202.609 149H196.828ZM198.766 147.281H202.609C203.875 147.281 204.773 147.036 205.305 146.547C205.841 146.052 206.109 145.453 206.109 144.75C206.109 144.208 205.971 143.708 205.695 143.25C205.419 142.786 205.026 142.417 204.516 142.141C204.005 141.859 203.401 141.719 202.703 141.719H198.766V147.281ZM198.766 140.031H202.359C202.943 140.031 203.469 139.917 203.938 139.687C204.411 139.458 204.786 139.135 205.063 138.719C205.344 138.302 205.484 137.812 205.484 137.25C205.484 136.547 205.24 135.951 204.75 135.461C204.26 134.966 203.484 134.719 202.422 134.719H198.766V140.031ZM212.73 133V149H210.887V133H212.73ZM220.982 149.25C219.899 149.25 218.949 148.992 218.131 148.477C217.318 147.961 216.683 147.24 216.225 146.312C215.771 145.385 215.545 144.302 215.545 143.062C215.545 141.812 215.771 140.721 216.225 139.789C216.683 138.857 217.318 138.133 218.131 137.617C218.949 137.102 219.899 136.844 220.982 136.844C222.066 136.844 223.014 137.102 223.826 137.617C224.644 138.133 225.279 138.857 225.732 139.789C226.191 140.721 226.42 141.812 226.42 143.062C226.42 144.302 226.191 145.385 225.732 146.312C225.279 147.24 224.644 147.961 223.826 148.477C223.014 148.992 222.066 149.25 220.982 149.25ZM220.982 147.594C221.805 147.594 222.482 147.383 223.014 146.961C223.545 146.539 223.938 145.984 224.193 145.297C224.449 144.609 224.576 143.865 224.576 143.062C224.576 142.26 224.449 141.513 224.193 140.82C223.938 140.128 223.545 139.568 223.014 139.141C222.482 138.714 221.805 138.5 220.982 138.5C220.16 138.5 219.482 138.714 218.951 139.141C218.42 139.568 218.027 140.128 217.771 140.82C217.516 141.513 217.389 142.26 217.389 143.062C217.389 143.865 217.516 144.609 217.771 145.297C218.027 145.984 218.42 146.539 218.951 146.961C219.482 147.383 220.16 147.594 220.982 147.594ZM234.078 153.75C233.188 153.75 232.422 153.635 231.781 153.406C231.141 153.182 230.607 152.885 230.18 152.516C229.758 152.151 229.422 151.76 229.172 151.344L230.641 150.313C230.807 150.531 231.018 150.781 231.273 151.062C231.529 151.349 231.878 151.596 232.32 151.805C232.768 152.018 233.354 152.125 234.078 152.125C235.047 152.125 235.846 151.891 236.477 151.422C237.107 150.953 237.422 150.219 237.422 149.219V146.781H237.266C237.13 147 236.938 147.271 236.688 147.594C236.443 147.911 236.089 148.195 235.625 148.445C235.167 148.69 234.547 148.812 233.766 148.812C232.797 148.812 231.927 148.583 231.156 148.125C230.391 147.667 229.784 147 229.336 146.125C228.893 145.25 228.672 144.187 228.672 142.937C228.672 141.708 228.888 140.638 229.32 139.727C229.753 138.81 230.354 138.102 231.125 137.602C231.896 137.096 232.786 136.844 233.797 136.844C234.578 136.844 235.198 136.974 235.656 137.234C236.12 137.49 236.474 137.781 236.719 138.109C236.969 138.432 237.161 138.698 237.297 138.906H237.484V137H239.266V149.344C239.266 150.375 239.031 151.214 238.563 151.859C238.099 152.51 237.474 152.987 236.688 153.289C235.906 153.596 235.036 153.75 234.078 153.75ZM234.016 147.156C234.755 147.156 235.38 146.987 235.891 146.648C236.401 146.31 236.789 145.823 237.055 145.188C237.32 144.552 237.453 143.792 237.453 142.906C237.453 142.042 237.323 141.279 237.063 140.617C236.802 139.956 236.417 139.437 235.906 139.062C235.396 138.687 234.766 138.5 234.016 138.5C233.234 138.5 232.583 138.698 232.063 139.094C231.547 139.49 231.159 140.021 230.898 140.688C230.643 141.354 230.516 142.094 230.516 142.906C230.516 143.74 230.646 144.477 230.906 145.117C231.172 145.753 231.563 146.253 232.078 146.617C232.599 146.977 233.245 147.156 234.016 147.156ZM251.141 139.687L249.484 140.156C249.38 139.88 249.227 139.612 249.023 139.352C248.826 139.086 248.555 138.867 248.211 138.695C247.867 138.523 247.427 138.437 246.891 138.437C246.156 138.437 245.544 138.607 245.055 138.945C244.57 139.279 244.328 139.703 244.328 140.219C244.328 140.677 244.495 141.039 244.828 141.305C245.161 141.57 245.682 141.792 246.391 141.969L248.172 142.406C249.245 142.667 250.044 143.065 250.57 143.602C251.096 144.133 251.359 144.818 251.359 145.656C251.359 146.344 251.161 146.958 250.766 147.5C250.375 148.042 249.828 148.469 249.125 148.781C248.422 149.094 247.604 149.25 246.672 149.25C245.448 149.25 244.435 148.984 243.633 148.453C242.831 147.922 242.323 147.146 242.109 146.125L243.859 145.687C244.026 146.333 244.341 146.818 244.805 147.141C245.273 147.464 245.885 147.625 246.641 147.625C247.5 147.625 248.182 147.443 248.688 147.078C249.198 146.708 249.453 146.266 249.453 145.75C249.453 145.333 249.307 144.984 249.016 144.703C248.724 144.417 248.276 144.203 247.672 144.062L245.672 143.594C244.573 143.333 243.766 142.93 243.25 142.383C242.74 141.831 242.484 141.141 242.484 140.312C242.484 139.635 242.674 139.036 243.055 138.516C243.44 137.995 243.964 137.586 244.625 137.289C245.292 136.992 246.047 136.844 246.891 136.844C248.078 136.844 249.01 137.104 249.688 137.625C250.37 138.146 250.854 138.833 251.141 139.687Z" fill="white"/>
</svg>
