<svg width="434" height="459" viewBox="0 0 434 459" fill="none" xmlns="http://www.w3.org/2000/svg">
<rect x="-177.976" y="283.437" width="587.828" height="200" rx="100" transform="rotate(-28.8277 -177.976 283.437)" fill="#0021F5" fill-opacity="0.47"/>
<path d="M101.065 149.985V146.182H118.984V149.985H112.305V168H107.745V149.985H101.065ZM126.934 168.32C125.251 168.32 123.802 167.979 122.588 167.297C121.381 166.608 120.45 165.635 119.797 164.378C119.143 163.114 118.817 161.619 118.817 159.893C118.817 158.21 119.143 156.732 119.797 155.461C120.45 154.19 121.37 153.199 122.556 152.489C123.749 151.778 125.148 151.423 126.753 151.423C127.833 151.423 128.838 151.597 129.768 151.945C130.706 152.286 131.523 152.801 132.219 153.49C132.922 154.179 133.469 155.045 133.859 156.089C134.25 157.126 134.445 158.341 134.445 159.733V160.979H120.628V158.167H130.173C130.173 157.513 130.031 156.935 129.747 156.43C129.463 155.926 129.069 155.532 128.564 155.248C128.067 154.957 127.488 154.811 126.828 154.811C126.139 154.811 125.528 154.971 124.996 155.29C124.47 155.603 124.058 156.026 123.76 156.558C123.461 157.084 123.309 157.67 123.302 158.316V160.99C123.302 161.8 123.451 162.499 123.749 163.089C124.055 163.678 124.484 164.133 125.038 164.452C125.592 164.772 126.249 164.932 127.009 164.932C127.513 164.932 127.975 164.861 128.394 164.719C128.813 164.577 129.172 164.364 129.47 164.08C129.768 163.795 129.996 163.447 130.152 163.036L134.349 163.312C134.136 164.321 133.699 165.202 133.039 165.955C132.385 166.7 131.54 167.283 130.503 167.702C129.474 168.114 128.284 168.32 126.934 168.32ZM144.8 168.32C143.124 168.32 141.682 167.964 140.475 167.254C139.275 166.537 138.351 165.543 137.705 164.271C137.066 163 136.746 161.537 136.746 159.882C136.746 158.206 137.069 156.736 137.716 155.472C138.369 154.2 139.296 153.21 140.496 152.499C141.697 151.782 143.124 151.423 144.779 151.423C146.206 151.423 147.456 151.683 148.529 152.201C149.601 152.719 150.45 153.447 151.075 154.385C151.7 155.322 152.045 156.423 152.108 157.688H147.826C147.705 156.871 147.385 156.214 146.867 155.717C146.356 155.212 145.684 154.96 144.854 154.96C144.15 154.96 143.536 155.152 143.01 155.536C142.492 155.912 142.087 156.462 141.796 157.187C141.505 157.911 141.359 158.788 141.359 159.818C141.359 160.862 141.501 161.75 141.785 162.482C142.077 163.213 142.485 163.771 143.01 164.154C143.536 164.538 144.15 164.729 144.854 164.729C145.372 164.729 145.837 164.623 146.249 164.41C146.668 164.197 147.013 163.888 147.282 163.483C147.559 163.071 147.741 162.577 147.826 162.002H152.108C152.037 163.252 151.697 164.353 151.086 165.305C150.482 166.249 149.648 166.988 148.582 167.521C147.517 168.053 146.256 168.32 144.8 168.32ZM159.553 158.54V168H155.014V146.182H159.425V154.523H159.616C159.986 153.558 160.582 152.801 161.406 152.254C162.23 151.7 163.263 151.423 164.506 151.423C165.643 151.423 166.634 151.672 167.479 152.169C168.331 152.659 168.991 153.366 169.46 154.289C169.936 155.205 170.17 156.303 170.163 157.581V168H165.625V158.391C165.632 157.382 165.376 156.597 164.858 156.036C164.347 155.475 163.629 155.195 162.706 155.195C162.088 155.195 161.541 155.326 161.065 155.589C160.597 155.852 160.227 156.235 159.957 156.739C159.695 157.237 159.56 157.837 159.553 158.54ZM178.273 158.54V168H173.735V151.636H178.06V154.523H178.252C178.614 153.572 179.221 152.819 180.074 152.265C180.926 151.704 181.959 151.423 183.174 151.423C184.31 151.423 185.301 151.672 186.146 152.169C186.991 152.666 187.648 153.376 188.117 154.3C188.586 155.216 188.82 156.31 188.82 157.581V168H184.282V158.391C184.289 157.389 184.033 156.608 183.515 156.047C182.996 155.479 182.282 155.195 181.373 155.195C180.763 155.195 180.223 155.326 179.754 155.589C179.292 155.852 178.93 156.235 178.667 156.739C178.412 157.237 178.28 157.837 178.273 158.54ZM199.79 168.32C198.136 168.32 196.705 167.968 195.497 167.265C194.297 166.555 193.37 165.567 192.717 164.303C192.063 163.032 191.737 161.558 191.737 159.882C191.737 158.192 192.063 156.714 192.717 155.45C193.37 154.179 194.297 153.192 195.497 152.489C196.705 151.778 198.136 151.423 199.79 151.423C201.445 151.423 202.873 151.778 204.073 152.489C205.281 153.192 206.211 154.179 206.864 155.45C207.518 156.714 207.844 158.192 207.844 159.882C207.844 161.558 207.518 163.032 206.864 164.303C206.211 165.567 205.281 166.555 204.073 167.265C202.873 167.968 201.445 168.32 199.79 168.32ZM199.812 164.804C200.565 164.804 201.193 164.591 201.697 164.165C202.202 163.732 202.582 163.142 202.837 162.396C203.1 161.651 203.232 160.802 203.232 159.85C203.232 158.898 203.1 158.05 202.837 157.304C202.582 156.558 202.202 155.969 201.697 155.536C201.193 155.102 200.565 154.886 199.812 154.886C199.052 154.886 198.413 155.102 197.894 155.536C197.383 155.969 196.996 156.558 196.733 157.304C196.477 158.05 196.349 158.898 196.349 159.85C196.349 160.802 196.477 161.651 196.733 162.396C196.996 163.142 197.383 163.732 197.894 164.165C198.413 164.591 199.052 164.804 199.812 164.804ZM215.334 146.182V168H210.795V146.182H215.334ZM226.363 168.32C224.708 168.32 223.277 167.968 222.069 167.265C220.869 166.555 219.942 165.567 219.289 164.303C218.635 163.032 218.309 161.558 218.309 159.882C218.309 158.192 218.635 156.714 219.289 155.45C219.942 154.179 220.869 153.192 222.069 152.489C223.277 151.778 224.708 151.423 226.363 151.423C228.018 151.423 229.445 151.778 230.645 152.489C231.853 153.192 232.783 154.179 233.437 155.45C234.09 156.714 234.417 158.192 234.417 159.882C234.417 161.558 234.09 163.032 233.437 164.303C232.783 165.567 231.853 166.555 230.645 167.265C229.445 167.968 228.018 168.32 226.363 168.32ZM226.384 164.804C227.137 164.804 227.765 164.591 228.27 164.165C228.774 163.732 229.154 163.142 229.41 162.396C229.672 161.651 229.804 160.802 229.804 159.85C229.804 158.898 229.672 158.05 229.41 157.304C229.154 156.558 228.774 155.969 228.27 155.536C227.765 155.102 227.137 154.886 226.384 154.886C225.624 154.886 224.985 155.102 224.466 155.536C223.955 155.969 223.568 156.558 223.305 157.304C223.05 158.05 222.922 158.898 222.922 159.85C222.922 160.802 223.05 161.651 223.305 162.396C223.568 163.142 223.955 163.732 224.466 164.165C224.985 164.591 225.624 164.804 226.384 164.804ZM244.74 174.477C243.27 174.477 242.009 174.275 240.958 173.87C239.914 173.472 239.083 172.929 238.465 172.24C237.847 171.551 237.446 170.777 237.261 169.918L241.459 169.353C241.586 169.68 241.789 169.985 242.066 170.269C242.343 170.553 242.709 170.781 243.163 170.951C243.625 171.129 244.186 171.217 244.846 171.217C245.834 171.217 246.647 170.976 247.286 170.493C247.932 170.017 248.256 169.218 248.256 168.096V165.102H248.064C247.865 165.557 247.567 165.987 247.169 166.391C246.771 166.796 246.26 167.126 245.635 167.382C245.01 167.638 244.264 167.766 243.398 167.766C242.169 167.766 241.05 167.482 240.042 166.913C239.04 166.338 238.241 165.461 237.645 164.282C237.055 163.096 236.76 161.597 236.76 159.786C236.76 157.933 237.062 156.384 237.666 155.141C238.27 153.898 239.072 152.968 240.074 152.35C241.082 151.732 242.187 151.423 243.387 151.423C244.303 151.423 245.07 151.58 245.688 151.892C246.306 152.197 246.803 152.581 247.18 153.043C247.563 153.497 247.858 153.945 248.064 154.385H248.234V151.636H252.741V168.16C252.741 169.552 252.4 170.717 251.718 171.654C251.036 172.592 250.091 173.295 248.884 173.763C247.684 174.239 246.302 174.477 244.74 174.477ZM244.836 164.357C245.567 164.357 246.185 164.175 246.689 163.813C247.201 163.444 247.591 162.918 247.861 162.237C248.138 161.548 248.277 160.724 248.277 159.765C248.277 158.806 248.142 157.975 247.872 157.272C247.602 156.562 247.211 156.011 246.7 155.621C246.189 155.23 245.567 155.035 244.836 155.035C244.09 155.035 243.461 155.237 242.95 155.642C242.439 156.04 242.052 156.594 241.789 157.304C241.526 158.014 241.395 158.835 241.395 159.765C241.395 160.71 241.526 161.526 241.789 162.215C242.059 162.897 242.446 163.426 242.95 163.803C243.461 164.172 244.09 164.357 244.836 164.357ZM256.352 168V151.636H260.89V168H256.352ZM258.632 149.527C257.957 149.527 257.378 149.303 256.895 148.856C256.42 148.401 256.182 147.858 256.182 147.226C256.182 146.601 256.42 146.065 256.895 145.617C257.378 145.163 257.957 144.935 258.632 144.935C259.307 144.935 259.882 145.163 260.358 145.617C260.841 146.065 261.082 146.601 261.082 147.226C261.082 147.858 260.841 148.401 260.358 148.856C259.882 149.303 259.307 149.527 258.632 149.527ZM271.983 168.32C270.3 168.32 268.851 167.979 267.637 167.297C266.429 166.608 265.499 165.635 264.846 164.378C264.192 163.114 263.865 161.619 263.865 159.893C263.865 158.21 264.192 156.732 264.846 155.461C265.499 154.19 266.419 153.199 267.605 152.489C268.798 151.778 270.197 151.423 271.802 151.423C272.882 151.423 273.887 151.597 274.817 151.945C275.755 152.286 276.571 152.801 277.267 153.49C277.971 154.179 278.517 155.045 278.908 156.089C279.299 157.126 279.494 158.341 279.494 159.733V160.979H265.676V158.167H275.222C275.222 157.513 275.08 156.935 274.796 156.43C274.512 155.926 274.118 155.532 273.613 155.248C273.116 154.957 272.537 154.811 271.877 154.811C271.188 154.811 270.577 154.971 270.044 155.29C269.519 155.603 269.107 156.026 268.809 156.558C268.51 157.084 268.358 157.67 268.35 158.316V160.99C268.35 161.8 268.5 162.499 268.798 163.089C269.103 163.678 269.533 164.133 270.087 164.452C270.641 164.772 271.298 164.932 272.058 164.932C272.562 164.932 273.024 164.861 273.443 164.719C273.862 164.577 274.221 164.364 274.519 164.08C274.817 163.795 275.044 163.447 275.201 163.036L279.398 163.312C279.185 164.321 278.748 165.202 278.088 165.955C277.434 166.7 276.589 167.283 275.552 167.702C274.522 168.114 273.333 168.32 271.983 168.32ZM296.071 156.303L291.916 156.558C291.845 156.203 291.692 155.884 291.458 155.599C291.223 155.308 290.914 155.077 290.531 154.907C290.154 154.729 289.703 154.641 289.178 154.641C288.475 154.641 287.882 154.79 287.399 155.088C286.916 155.379 286.674 155.77 286.674 156.26C286.674 156.651 286.831 156.981 287.143 157.251C287.456 157.521 287.992 157.737 288.752 157.901L291.713 158.497C293.304 158.824 294.49 159.349 295.272 160.074C296.053 160.798 296.444 161.75 296.444 162.929C296.444 164.001 296.127 164.942 295.495 165.752C294.87 166.562 294.011 167.194 292.917 167.648C291.831 168.096 290.577 168.32 289.157 168.32C286.99 168.32 285.265 167.869 283.979 166.967C282.701 166.058 281.951 164.822 281.731 163.259L286.195 163.025C286.33 163.685 286.657 164.19 287.175 164.538C287.694 164.879 288.358 165.049 289.167 165.049C289.963 165.049 290.602 164.896 291.085 164.591C291.575 164.278 291.824 163.877 291.831 163.387C291.824 162.975 291.65 162.638 291.309 162.375C290.968 162.105 290.442 161.899 289.732 161.757L286.898 161.192C285.3 160.873 284.11 160.319 283.329 159.531C282.555 158.742 282.168 157.737 282.168 156.516C282.168 155.464 282.452 154.559 283.02 153.799C283.596 153.039 284.402 152.453 285.439 152.041C286.483 151.629 287.704 151.423 289.103 151.423C291.17 151.423 292.797 151.86 293.983 152.734C295.176 153.607 295.872 154.797 296.071 156.303ZM310.943 146.182V168H306.33V146.182H310.943ZM332.09 161.033V151.636H336.628V168H332.271V165.028H332.1C331.731 165.987 331.117 166.757 330.257 167.339C329.405 167.922 328.365 168.213 327.136 168.213C326.042 168.213 325.08 167.964 324.249 167.467C323.418 166.97 322.768 166.263 322.299 165.347C321.838 164.431 321.603 163.334 321.596 162.055V151.636H326.135V161.246C326.142 162.212 326.401 162.975 326.912 163.536C327.424 164.097 328.109 164.378 328.968 164.378C329.515 164.378 330.027 164.254 330.502 164.005C330.978 163.749 331.362 163.373 331.653 162.876C331.951 162.379 332.097 161.764 332.09 161.033ZM353.873 156.303L349.719 156.558C349.648 156.203 349.495 155.884 349.26 155.599C349.026 155.308 348.717 155.077 348.334 154.907C347.957 154.729 347.506 154.641 346.981 154.641C346.278 154.641 345.684 154.79 345.202 155.088C344.719 155.379 344.477 155.77 344.477 156.26C344.477 156.651 344.633 156.981 344.946 157.251C345.258 157.521 345.795 157.737 346.555 157.901L349.516 158.497C351.107 158.824 352.293 159.349 353.074 160.074C353.856 160.798 354.246 161.75 354.246 162.929C354.246 164.001 353.93 164.942 353.298 165.752C352.673 166.562 351.814 167.194 350.72 167.648C349.633 168.096 348.38 168.32 346.959 168.32C344.793 168.32 343.067 167.869 341.782 166.967C340.503 166.058 339.754 164.822 339.534 163.259L343.998 163.025C344.133 163.685 344.459 164.19 344.978 164.538C345.496 164.879 346.16 165.049 346.97 165.049C347.765 165.049 348.405 164.896 348.888 164.591C349.378 164.278 349.626 163.877 349.633 163.387C349.626 162.975 349.452 162.638 349.111 162.375C348.77 162.105 348.245 161.899 347.535 161.757L344.701 161.192C343.103 160.873 341.913 160.319 341.132 159.531C340.358 158.742 339.971 157.737 339.971 156.516C339.971 155.464 340.255 154.559 340.823 153.799C341.398 153.039 342.204 152.453 343.241 152.041C344.285 151.629 345.507 151.423 346.906 151.423C348.973 151.423 350.599 151.86 351.785 152.734C352.979 153.607 353.675 154.797 353.873 156.303ZM364.561 168.32C362.878 168.32 361.429 167.979 360.215 167.297C359.007 166.608 358.077 165.635 357.424 164.378C356.77 163.114 356.444 161.619 356.444 159.893C356.444 158.21 356.77 156.732 357.424 155.461C358.077 154.19 358.997 153.199 360.183 152.489C361.376 151.778 362.775 151.423 364.38 151.423C365.46 151.423 366.465 151.597 367.395 151.945C368.333 152.286 369.15 152.801 369.846 153.49C370.549 154.179 371.096 155.045 371.486 156.089C371.877 157.126 372.072 158.341 372.072 159.733V160.979H358.255V158.167H367.8C367.8 157.513 367.658 156.935 367.374 156.43C367.09 155.926 366.696 155.532 366.191 155.248C365.694 154.957 365.115 154.811 364.455 154.811C363.766 154.811 363.155 154.971 362.623 155.29C362.097 155.603 361.685 156.026 361.387 156.558C361.088 157.084 360.936 157.67 360.929 158.316V160.99C360.929 161.8 361.078 162.499 361.376 163.089C361.681 163.678 362.111 164.133 362.665 164.452C363.219 164.772 363.876 164.932 364.636 164.932C365.14 164.932 365.602 164.861 366.021 164.719C366.44 164.577 366.799 164.364 367.097 164.08C367.395 163.795 367.623 163.447 367.779 163.036L371.976 163.312C371.763 164.321 371.326 165.202 370.666 165.955C370.012 166.7 369.167 167.283 368.13 167.702C367.1 168.114 365.911 168.32 364.561 168.32Z" fill="white"/>
</svg>
