<svg width="506" height="547" viewBox="0 0 506 547" fill="none" xmlns="http://www.w3.org/2000/svg">
<path d="M55.8431 463.633C25.0018 417.818 37.1403 355.676 82.9551 324.835L481.109 56.8085C526.924 25.9672 589.066 38.1057 619.907 83.9205V83.9205C650.749 129.735 638.61 191.877 592.795 222.719L194.641 490.745C148.826 521.586 86.6844 509.448 55.8431 463.633V463.633Z" fill="#759ADF"/>
<path d="M91.8075 415L85.5646 393.182H90.6037L94.2152 408.342H94.3963L98.3807 393.182H102.695L106.669 408.374H106.861L110.472 393.182H115.511L109.268 415H104.773L100.618 400.735H100.447L96.3033 415H91.8075ZM122.433 405.54V415H117.895V393.182H122.306V401.523H122.497C122.867 400.558 123.463 399.801 124.287 399.254C125.111 398.7 126.144 398.423 127.387 398.423C128.524 398.423 129.514 398.672 130.36 399.169C131.212 399.659 131.872 400.366 132.341 401.289C132.817 402.205 133.051 403.303 133.044 404.581V415H128.506V405.391C128.513 404.382 128.257 403.597 127.739 403.036C127.227 402.475 126.51 402.195 125.587 402.195C124.969 402.195 124.422 402.326 123.946 402.589C123.477 402.852 123.108 403.235 122.838 403.739C122.575 404.237 122.441 404.837 122.433 405.54ZM141.282 415.309C140.238 415.309 139.308 415.128 138.491 414.766C137.674 414.396 137.028 413.853 136.552 413.136C136.083 412.411 135.849 411.509 135.849 410.43C135.849 409.521 136.016 408.757 136.349 408.139C136.683 407.521 137.138 407.024 137.713 406.648C138.288 406.271 138.942 405.987 139.673 405.795C140.412 405.604 141.186 405.469 141.996 405.391C142.947 405.291 143.714 405.199 144.297 405.114C144.879 405.021 145.302 404.886 145.565 404.709C145.827 404.531 145.959 404.268 145.959 403.92V403.857C145.959 403.182 145.746 402.66 145.32 402.29C144.901 401.921 144.304 401.737 143.53 401.737C142.713 401.737 142.063 401.918 141.58 402.28C141.097 402.635 140.778 403.082 140.621 403.622L136.424 403.281C136.637 402.287 137.056 401.428 137.681 400.703C138.306 399.972 139.112 399.411 140.099 399.02C141.094 398.622 142.244 398.423 143.551 398.423C144.46 398.423 145.33 398.53 146.161 398.743C146.999 398.956 147.741 399.286 148.388 399.734C149.041 400.181 149.556 400.756 149.933 401.46C150.309 402.156 150.497 402.99 150.497 403.963V415H146.193V412.731H146.065C145.803 413.242 145.451 413.693 145.011 414.084C144.57 414.467 144.041 414.769 143.423 414.989C142.805 415.202 142.092 415.309 141.282 415.309ZM142.582 412.177C143.249 412.177 143.839 412.045 144.35 411.783C144.862 411.513 145.263 411.151 145.554 410.696C145.845 410.241 145.991 409.727 145.991 409.151V407.415C145.849 407.507 145.653 407.592 145.405 407.67C145.163 407.741 144.89 407.809 144.585 407.873C144.279 407.93 143.974 407.983 143.668 408.033C143.363 408.075 143.086 408.114 142.837 408.15C142.305 408.228 141.839 408.352 141.442 408.523C141.044 408.693 140.735 408.924 140.515 409.215C140.295 409.499 140.185 409.854 140.185 410.281C140.185 410.898 140.408 411.371 140.856 411.697C141.31 412.017 141.886 412.177 142.582 412.177ZM162.722 398.636V402.045H152.868V398.636H162.722ZM155.105 394.716H159.643V409.972C159.643 410.391 159.707 410.717 159.835 410.952C159.963 411.179 160.14 411.339 160.368 411.431C160.602 411.523 160.872 411.57 161.177 411.57C161.39 411.57 161.603 411.552 161.816 411.516C162.029 411.474 162.193 411.442 162.306 411.42L163.02 414.798C162.793 414.869 162.473 414.95 162.061 415.043C161.65 415.142 161.149 415.202 160.559 415.224C159.466 415.266 158.507 415.121 157.683 414.787C156.866 414.453 156.23 413.935 155.776 413.232C155.321 412.528 155.098 411.641 155.105 410.568V394.716ZM177.32 393.182V415H172.707V393.182H177.32ZM194.003 415.266C192.76 415.266 191.634 414.947 190.626 414.308C189.624 413.661 188.829 412.713 188.24 411.463C187.657 410.206 187.366 408.665 187.366 406.839C187.366 404.964 187.668 403.406 188.271 402.163C188.875 400.913 189.678 399.979 190.679 399.361C191.688 398.736 192.792 398.423 193.992 398.423C194.909 398.423 195.672 398.58 196.283 398.892C196.901 399.197 197.398 399.581 197.774 400.043C198.158 400.497 198.449 400.945 198.648 401.385H198.786V393.182H203.314V415H198.84V412.379H198.648C198.435 412.834 198.133 413.285 197.742 413.732C197.359 414.173 196.858 414.538 196.24 414.83C195.629 415.121 194.884 415.266 194.003 415.266ZM195.441 411.655C196.173 411.655 196.791 411.456 197.295 411.058C197.806 410.653 198.197 410.089 198.467 409.364C198.744 408.64 198.882 407.791 198.882 406.818C198.882 405.845 198.747 405 198.477 404.283C198.208 403.565 197.817 403.011 197.306 402.621C196.794 402.23 196.173 402.035 195.441 402.035C194.695 402.035 194.067 402.237 193.556 402.642C193.044 403.047 192.657 403.608 192.394 404.325C192.132 405.043 192 405.874 192 406.818C192 407.77 192.132 408.612 192.394 409.343C192.664 410.067 193.051 410.636 193.556 411.048C194.067 411.452 194.695 411.655 195.441 411.655ZM214.439 415.32C212.784 415.32 211.353 414.968 210.146 414.265C208.945 413.555 208.018 412.567 207.365 411.303C206.712 410.032 206.385 408.558 206.385 406.882C206.385 405.192 206.712 403.714 207.365 402.45C208.018 401.179 208.945 400.192 210.146 399.489C211.353 398.778 212.784 398.423 214.439 398.423C216.094 398.423 217.521 398.778 218.722 399.489C219.929 400.192 220.859 401.179 221.513 402.45C222.166 403.714 222.493 405.192 222.493 406.882C222.493 408.558 222.166 410.032 221.513 411.303C220.859 412.567 219.929 413.555 218.722 414.265C217.521 414.968 216.094 415.32 214.439 415.32ZM214.46 411.804C215.213 411.804 215.842 411.591 216.346 411.165C216.85 410.732 217.23 410.142 217.486 409.396C217.749 408.651 217.88 407.802 217.88 406.85C217.88 405.898 217.749 405.05 217.486 404.304C217.23 403.558 216.85 402.969 216.346 402.536C215.842 402.102 215.213 401.886 214.46 401.886C213.7 401.886 213.061 402.102 212.543 402.536C212.031 402.969 211.644 403.558 211.381 404.304C211.126 405.05 210.998 405.898 210.998 406.85C210.998 407.802 211.126 408.651 211.381 409.396C211.644 410.142 212.031 410.732 212.543 411.165C213.061 411.591 213.7 411.804 214.46 411.804ZM229.343 408.459V408.097C229.35 406.854 229.46 405.863 229.673 405.124C229.893 404.386 230.213 403.789 230.632 403.335C231.051 402.88 231.555 402.468 232.145 402.099C232.585 401.815 232.979 401.52 233.327 401.214C233.675 400.909 233.952 400.572 234.158 400.202C234.364 399.826 234.467 399.407 234.467 398.945C234.467 398.455 234.35 398.026 234.116 397.656C233.881 397.287 233.565 397.003 233.168 396.804C232.777 396.605 232.344 396.506 231.868 396.506C231.406 396.506 230.969 396.609 230.558 396.815C230.146 397.013 229.808 397.312 229.545 397.71C229.283 398.1 229.141 398.587 229.119 399.169H224.773C224.808 397.749 225.149 396.577 225.795 395.653C226.442 394.723 227.298 394.031 228.363 393.576C229.428 393.114 230.604 392.884 231.889 392.884C233.303 392.884 234.553 393.118 235.639 393.587C236.726 394.048 237.578 394.719 238.196 395.6C238.814 396.481 239.123 397.543 239.123 398.786C239.123 399.616 238.984 400.355 238.707 401.001C238.438 401.641 238.058 402.209 237.567 402.706C237.077 403.196 236.499 403.64 235.831 404.038C235.27 404.371 234.808 404.719 234.446 405.082C234.091 405.444 233.825 405.863 233.647 406.339C233.477 406.815 233.388 407.401 233.381 408.097V408.459H229.343ZM231.452 415.277C230.742 415.277 230.135 415.028 229.631 414.531C229.134 414.027 228.888 413.423 228.896 412.72C228.888 412.024 229.134 411.428 229.631 410.93C230.135 410.433 230.742 410.185 231.452 410.185C232.127 410.185 232.72 410.433 233.232 410.93C233.743 411.428 234.002 412.024 234.009 412.72C234.002 413.189 233.878 413.619 233.636 414.009C233.402 414.393 233.093 414.702 232.71 414.936C232.326 415.163 231.907 415.277 231.452 415.277Z" fill="white"/>
</svg>
